<svg xmlns="http://www.w3.org/2000/svg" viewBox="0 0 700 400">
  <defs>
    <linearGradient id="gsGrad" x1="0%" y1="0%" x2="0%" y2="100%">
      <stop offset="0%" style="stop-color:#6366f1;stop-opacity:1" />
      <stop offset="100%" style="stop-color:#4f46e5;stop-opacity:1" />
    </linearGradient>
    <filter id="shadowGS" x="-10%" y="-10%" width="120%" height="120%">
      <feDropShadow dx="1" dy="2" stdDeviation="3" flood-opacity="0.25"/>
    </filter>
  </defs>

  <rect width="700" height="400" fill="#0D1117" rx="12"/>

  <text x="350" y="35" text-anchor="middle" fill="#E6EDF3" font-family="sans-serif" font-weight="bold" font-size="18">開始使用步驟</text>

  <g transform="translate(30, 60)">
    <rect width="300" height="80" rx="12" fill="url(#gsGrad)" filter="url(#shadowGS)"/>
    <circle cx="40" cy="40" r="25" fill="rgba(255,255,255,0.2)"/>
    <text x="40" y="47" text-anchor="middle" fill="white" font-family="sans-serif" font-weight="bold" font-size="18">1</text>
    <text x="175" y="35" text-anchor="middle" fill="white" font-family="sans-serif" font-weight="bold" font-size="14">存取 DigiCode</text>
    <text x="175" y="55" text-anchor="middle" fill="#c7d2fe" font-family="sans-serif" font-size="11">開啟瀏覽器，建立帳號</text>
  </g>

  <path d="M180 140 L180 160" stroke="#5eead4" stroke-width="2" fill="none"/>
  <polygon points="175,160 180,175 185,160" fill="#5eead4"/>

  <g transform="translate(30, 180)">
    <rect width="300" height="80" rx="12" fill="url(#gsGrad)" filter="url(#shadowGS)"/>
    <circle cx="40" cy="40" r="25" fill="rgba(255,255,255,0.2)"/>
    <text x="40" y="47" text-anchor="middle" fill="white" font-family="sans-serif" font-weight="bold" font-size="18">2</text>
    <text x="175" y="35" text-anchor="middle" fill="white" font-family="sans-serif" font-weight="bold" font-size="14">選擇開發板</text>
    <text x="175" y="55" text-anchor="middle" fill="#c7d2fe" font-family="sans-serif" font-size="11">選擇 ESP32 型號</text>
  </g>

  <path d="M180 260 L180 280" stroke="#5eead4" stroke-width="2" fill="none"/>
  <polygon points="175,280 180,295 185,280" fill="#5eead4"/>

  <g transform="translate(30, 300)">
    <rect width="300" height="80" rx="12" fill="url(#gsGrad)" filter="url(#shadowGS)"/>
    <circle cx="40" cy="40" r="25" fill="rgba(255,255,255,0.2)"/>
    <text x="40" y="47" text-anchor="middle" fill="white" font-family="sans-serif" font-weight="bold" font-size="18">3</text>
    <text x="175" y="35" text-anchor="middle" fill="white" font-family="sans-serif" font-weight="bold" font-size="14">燒錄韌體</text>
    <text x="175" y="55" text-anchor="middle" fill="#c7d2fe" font-family="sans-serif" font-size="11">連接 USB，點選 INSTALL</text>
  </g>

  <g transform="translate(370, 60)">
    <rect width="300" height="80" rx="12" fill="#22c55e" filter="url(#shadowGS)"/>
    <circle cx="40" cy="40" r="25" fill="rgba(255,255,255,0.2)"/>
    <text x="40" y="47" text-anchor="middle" fill="white" font-family="sans-serif" font-weight="bold" font-size="18">4</text>
    <text x="175" y="35" text-anchor="middle" fill="white" font-family="sans-serif" font-weight="bold" font-size="14">設定 WiFi</text>
    <text x="175" y="55" text-anchor="middle" fill="#bbf7d0" font-family="sans-serif" font-size="11">輸入 SSID 和密碼</text>
  </g>

  <path d="M520 140 L520 160" stroke="#5eead4" stroke-width="2" fill="none"/>
  <polygon points="515,160 520,175 525,160" fill="#5eead4"/>

  <g transform="translate(370, 180)">
    <rect width="300" height="80" rx="12" fill="#22c55e" filter="url(#shadowGS)"/>
    <circle cx="40" cy="40" r="25" fill="rgba(255,255,255,0.2)"/>
    <text x="40" y="47" text-anchor="middle" fill="white" font-family="sans-serif" font-weight="bold" font-size="18">5</text>
    <text x="175" y="35" text-anchor="middle" fill="white" font-family="sans-serif" font-weight="bold" font-size="14">建立程式</text>
    <text x="175" y="55" text-anchor="middle" fill="#bbf7d0" font-family="sans-serif" font-size="11">拖放積木</text>
  </g>

  <path d="M520 260 L520 280" stroke="#5eead4" stroke-width="2" fill="none"/>
  <polygon points="515,280 520,295 525,280" fill="#5eead4"/>

  <g transform="translate(370, 300)">
    <rect width="300" height="80" rx="12" fill="#f59e0b" filter="url(#shadowGS)"/>
    <circle cx="40" cy="40" r="25" fill="rgba(255,255,255,0.2)"/>
    <text x="40" y="47" text-anchor="middle" fill="white" font-family="sans-serif" font-weight="bold" font-size="18">6</text>
    <text x="175" y="35" text-anchor="middle" fill="white" font-family="sans-serif" font-weight="bold" font-size="14">燒錄並執行！</text>
    <text x="175" y="55" text-anchor="middle" fill="#fef3c7" font-family="sans-serif" font-size="11">WiFi OTA 或 USB</text>
  </g>
</svg>
